<?xml version="1.0" encoding="UTF-8" standalone="no"?>
<svg
   xmlns:dc="http://purl.org/dc/elements/1.1/"
   xmlns:cc="http://creativecommons.org/ns#"
   xmlns:rdf="http://www.w3.org/1999/02/22-rdf-syntax-ns#"
   xmlns:svg="http://www.w3.org/2000/svg"
   xmlns="http://www.w3.org/2000/svg"
   id="svg8"
   version="1.1"
   viewBox="0 0 256 256"
   height="967.55908"
   width="967.55908">
  <defs
     id="defs2">
    <marker
       style="overflow:visible"
       id="Arrow2Lend"
       refX="0"
       refY="0"
       orient="auto">
      <path
         transform="matrix(-1.1,0,0,-1.1,-1.1,0)"
         d="M 8.7185878,4.0337352 -2.2072895,0.01601326 8.7185884,-4.0017078 c -1.7454984,2.3720609 -1.7354408,5.6174519 -6e-7,8.035443 z"
         style="fill:#fdcc12;fill-opacity:1;fill-rule:evenodd;stroke:#fdcc12;stroke-width:0.625;stroke-linejoin:round;stroke-opacity:1"
         id="path887" />
    </marker>
    <marker
       style="overflow:visible"
       id="Arrow2Lend-7"
       refX="0"
       refY="0"
       orient="auto">
      <path
         transform="matrix(-1.1,0,0,-1.1,-1.1,0)"
         d="M 8.7185878,4.0337352 -2.2072895,0.01601326 8.7185884,-4.0017078 c -1.7454984,2.3720609 -1.7354408,5.6174519 -6e-7,8.035443 z"
         style="fill:#fdcc12;fill-opacity:1;fill-rule:evenodd;stroke:#fdcc12;stroke-width:0.625;stroke-linejoin:round;stroke-opacity:1"
         id="path887-6" />
    </marker>
    <marker
       style="overflow:visible"
       id="Arrow2Lend-7-3"
       refX="0"
       refY="0"
       orient="auto">
      <path
         transform="matrix(-1.1,0,0,-1.1,-1.1,0)"
         d="M 8.7185878,4.0337352 -2.2072895,0.01601326 8.7185884,-4.0017078 c -1.7454984,2.3720609 -1.7354408,5.6174519 -6e-7,8.035443 z"
         style="fill:#fdcc12;fill-opacity:1;fill-rule:evenodd;stroke:#fdcc12;stroke-width:0.625;stroke-linejoin:round;stroke-opacity:1"
         id="path887-6-6" />
    </marker>
    <marker
       style="overflow:visible"
       id="Arrow2Lend-6"
       refX="0"
       refY="0"
       orient="auto">
      <path
         transform="matrix(-1.1,0,0,-1.1,-1.1,0)"
         d="M 8.7185878,4.0337352 -2.2072895,0.01601326 8.7185884,-4.0017078 c -1.7454984,2.3720609 -1.7354408,5.6174519 -6e-7,8.035443 z"
         style="fill:#fdcc12;fill-opacity:1;fill-rule:evenodd;stroke:#fdcc12;stroke-width:0.625;stroke-linejoin:round;stroke-opacity:1"
         id="path887-3" />
    </marker>
  </defs>
  <metadata
     id="metadata5">
    <rdf:RDF>
      <cc:Work
         rdf:about="">
        <dc:format>image/svg+xml</dc:format>
        <dc:type
           rdf:resource="http://purl.org/dc/dcmitype/StillImage" />
        <dc:title></dc:title>
      </cc:Work>
    </rdf:RDF>
  </metadata>
  <g
     transform="translate(0,-41)"
     id="layer1">
    <path
       id="path860"
       d="M 34.636715,257.22786 C 18.547668,239.97971 7.8104797,219.53432 2.8710067,196.7407 0.86125173,187.46648 0.05173976,179.63522 0.05635176,169.51137 c 0.0028,-6.69865 0.160715,-9.56563 0.84577597,-15.37972 C 4.1223477,126.80155 16.391673,100.83342 35.442467,81.026814 l 2.037143,-2.117962 3.543463,3.557902 3.543463,3.557902 -1.967641,2.036636 C 26.708468,104.5089 15.640986,126.48082 11.744866,149.3148 c -1.9069417,11.176 -2.2109517,23.66815 -0.844463,34.70016 3.119874,25.18754 13.977875,48.25281 31.403019,66.70832 l 2.203811,2.33413 -3.511964,3.51562 c -1.931581,1.93358 -3.554903,3.51252 -3.607384,3.50876 -0.05248,-0.004 -1.290506,-1.28804 -2.75117,-2.85393 z m 180.393025,-1.11787 c -1.87742,-1.87945 -3.41347,-3.49321 -3.41347,-3.58611 0,-0.0929 0.86589,-1.06051 1.92419,-2.15028 7.81961,-8.05209 15.55996,-19.15428 20.43069,-29.3043 6.82025,-14.21252 10.46461,-27.7011 11.73056,-43.4172 0.29098,-3.6124 0.29142,-13.59649 0,-17.21717 -1.90401,-23.71772 -10.08503,-45.20403 -24.15564,-63.441561 -2.06356,-2.674632 -6.42378,-7.763752 -7.77647,-9.076439 -0.58336,-0.566112 -1.31957,-1.352432 -1.63603,-1.747388 l -0.57535,-0.718099 3.5132,-3.516857 3.5132,-3.516856 1.91243,1.989238 c 17.76284,18.475336 29.48515,41.603872 33.77986,66.647232 1.35185,7.88292 1.77941,13.16653 1.77941,21.98931 0,7.1956 -0.1359,9.70508 -0.84622,15.62645 -2.86836,23.91093 -12.591,46.65401 -27.96124,65.40652 -2.90717,3.54691 -8.34164,9.45073 -8.6994,9.45073 -0.0584,0 -1.64231,-1.53773 -3.51972,-3.41722 z m -91.74225,1.71381 C 103.52974,256.79928 84.603158,249.05194 69.574654,235.83721 64.771259,231.61352 59.917483,226.26688 56.168077,221.0693 42.184981,201.68533 36.702206,177.82289 40.774397,154.07207 44.622494,131.62825 57.501602,111.08017 76.218236,97.522842 88.529458,88.605279 102.87114,83.046107 118.12705,81.278009 c 5.76179,-0.667774 14.07728,-0.669061 19.8484,-0.0028 26.17243,3.020253 49.38745,17.264891 63.9694,39.251401 9.68746,14.60663 14.71953,31.28884 14.71953,48.7979 0,17.4635 -5.0486,34.27541 -14.63981,48.75078 -7.39784,11.16508 -17.24739,20.57034 -28.67906,27.38545 -12.66888,7.55269 -26.11006,11.60263 -41.07792,12.37718 -4.01152,0.20758 -4.73132,0.20647 -8.9801,-0.0139 z m 10.75796,-7.28216 c 19.51853,-1.61647 36.89964,-9.44329 50.69458,-22.82809 20.76355,-20.14622 29.23949,-49.59602 22.37991,-77.7594 -7.51738,-30.86408 -32.71058,-54.724995 -63.99805,-60.61357 -23.29603,-4.384517 -47.172722,1.556349 -65.780796,16.36725 -14.307256,11.38771 -24.435468,27.41995 -28.602889,45.27637 -2.424274,10.38745 -2.701349,22.31389 -0.765195,32.93719 5.038597,27.64577 24.161267,50.89386 50.325422,61.18234 7.686448,3.02253 15.798778,4.84891 24.424858,5.49891 1.98049,0.14923 9.25698,0.11003 11.32216,-0.061 z m -46.465762,-50.29202 0.0671,-8.18751 0.52556,-2.24571 c 0.64283,-2.74684 1.52308,-5.15163 2.87183,-7.8457 0.56289,-1.12434 4.42609,-7.59249 8.584875,-14.37366 l 7.561447,-12.32941 v -5.136 -5.136 h 6.08215 6.08215 v 3.74285 3.74287 h 8.32786 8.32787 v -3.74287 -3.74285 h 6.08216 6.08215 l 0.003,5.19321 0.003,5.19323 7.85457,12.63216 c 8.00595,12.87565 9.71206,15.84282 10.55437,18.35565 0.97399,2.9057 1.09285,4.25851 1.18655,13.50546 l 0.0868,8.5618 H 127.68785 87.513128 l 0.067,-8.18752 z m 31.587882,-20.07109 v -2.24572 h -3.46215 -3.46215 v 2.24572 2.24571 h 3.46215 3.46215 z m 11.41573,0 v -2.24572 h -3.36857 -3.36858 v 2.24572 2.24571 h 3.36858 3.36857 z m 11.60288,0 v -2.24572 h -3.36859 -3.36857 v 2.24572 2.24571 h 3.36857 3.36859 z m -23.01861,-8.14073 v -2.33928 h -3.46215 -3.46215 v 2.33928 2.33929 h 3.46215 3.46215 z m 11.41573,0 v -2.33928 h -3.36857 -3.36858 v 2.33928 2.33929 h 3.36858 3.36857 z m 11.60288,0 v -2.33928 h -3.36859 -3.36857 v 2.33928 2.33929 h 3.36857 3.36859 z m -23.01861,-8.23429 v -2.33929 h -3.46215 -3.46215 v 2.33929 2.33928 h 3.46215 3.46215 z m 11.41573,0 v -2.33929 h -3.36857 -3.36858 v 2.33929 2.33928 h 3.36858 3.36857 z m 11.60288,0 v -2.33929 h -3.36859 -3.36857 v 2.33929 2.33928 h 3.36857 3.36859 z m -59.417933,-0.0939 c -4.360858,-0.65589 -6.074612,-2.39536 -6.637265,-6.73687 -0.177812,-1.37196 -0.264719,-4.86573 -0.12105,-4.86573 0.03982,0 1.197784,0.28641 2.573224,0.63646 3.591224,0.91396 5.444422,1.12017 8.910252,0.99147 4.57441,-0.16988 8.38909,-1.13542 12.748932,-3.22691 1.17061,-0.56156 2.17206,-1.02102 2.22547,-1.02102 0.20956,0 -0.13227,5.02445 -0.41378,6.08215 -1.26604,4.75674 -4.835342,7.33572 -11.238632,8.12041 -1.86136,0.22811 -6.58553,0.23986 -8.047151,0.02 z m 82.810823,-0.48655 c -4.84349,-0.56686 -7.87424,-1.73218 -9.91859,-3.8137 -1.99803,-2.03436 -2.80715,-4.36354 -2.80715,-8.08085 0,-1.21869 0.0308,-2.21578 0.0685,-2.21578 0.0377,0 0.85877,0.3743 1.82465,0.83177 6.88255,3.25989 15.19749,4.16491 22.40363,2.43851 1.06327,-0.25473 2.02254,-0.46314 2.13175,-0.46314 0.27066,0 0.0227,4.58349 -0.332,6.13635 -0.62101,2.71893 -2.03819,4.08891 -4.99257,4.82631 -1.14232,0.28512 -6.86447,0.5177 -8.37824,0.34053 z m -83.911571,-12.3335 c -1.8925,-0.30905 -5.036044,-1.16281 -5.429091,-1.4745 -0.225236,-0.1786 -0.214216,-0.44531 0.07623,-1.84588 0.961033,-4.63406 2.525608,-8.90821 5.093492,-13.91448 l 0.681545,-1.32872 3.707863,-1.23057 c 4.21329,-1.39831 7.97441,-2.43369 12.316444,-3.39053 20.462688,-4.5093 45.174418,-3.98048 64.941108,1.38971 1.54258,0.41909 4.45995,1.31448 6.48304,1.98976 l 3.67835,1.22778 0.97286,1.75612 c 1.21346,2.19044 2.55497,5.33958 3.41927,8.0266 0.63686,1.97998 1.6319,6.07591 1.6319,6.71753 0,0.40807 -0.51658,0.5876 -3.3298,1.15721 -6.76677,1.37012 -14.16342,0.38112 -21.43278,-2.86575 l -1.57774,-0.70469 -0.10732,-1.27772 c -0.1358,-1.61663 -0.64207,-2.66368 -1.82129,-3.76669 -2.44773,-2.28958 -7.55874,-3.67546 -15.61613,-4.23444 -4.15873,-0.2885 -14.97428,-0.12348 -18.43359,0.28126 -7.96934,0.93242 -12.41303,2.72987 -13.89009,5.61847 -0.21075,0.41216 -0.42951,1.32112 -0.49545,2.05858 l -0.11805,1.32054 -2.478867,1.23453 c -2.706055,1.34767 -5.699775,2.40561 -8.469005,2.99281 -2.39195,0.50721 -7.47296,0.64356 -9.802903,0.26307 z m -31.70805,92.40294 c -9.950421,-10.65053 -17.310722,-22.40648 -22.325006,-35.6577 -6.027166,-15.92796 -8.16455,-33.25686 -6.237218,-50.56845 2.365277,-21.24529 11.427589,-41.89836 25.455974,-58.014404 1.164745,-1.338073 2.832458,-3.190793 3.70603,-4.117153 l 1.588314,-1.684288 3.039552,3.028875 3.039551,3.028867 -1.297076,1.414383 c -4.968688,5.41803 -7.821421,8.96148 -10.783471,13.39438 -2.752318,4.11902 -4.091403,6.432 -6.392369,11.04144 -6.953239,13.92918 -10.403198,28.5969 -10.412332,44.26873 -0.01093,18.7676 5.153841,36.83831 15.046748,52.6461 3.450393,5.51334 6.862744,9.92834 11.754386,15.20815 1.109016,1.19702 2.016392,2.25073 2.016392,2.34156 0,0.24781 -5.67832,5.86849 -5.928675,5.86849 -0.119032,0 -1.140892,-0.98952 -2.2708,-2.19893 z m 150.860611,-1.20902 -3.02977,-3.04849 1.6262,-1.69015 c 13.385,-13.91132 22.62199,-32.19225 25.86232,-51.18419 3.9949,-23.41443 -0.1182,-46.64435 -11.878,-67.0844 -1.58324,-2.7519 -5.06911,-7.94044 -7.05016,-10.49386 -2.03023,-2.61681 -5.85268,-7.03609 -7.34756,-8.49482 -0.57655,-0.562588 -1.04826,-1.110968 -1.04826,-1.218621 0,-0.107653 1.33163,-1.525404 2.95917,-3.150568 l 2.95917,-2.954833 1.79225,1.834167 c 8.25511,8.448185 15.90666,19.941635 20.78133,31.215685 11.11216,25.70007 11.91403,54.44242 2.25026,80.65869 -4.34237,11.78017 -10.8083,22.76223 -19.11702,32.46933 -1.18937,1.38953 -2.96521,3.35086 -3.94633,4.35849 l -1.78383,1.83206 z"
       style="fill:#fdcc12;fill-opacity:1;stroke-width:0.18714312" />
    <path
       id="path862"
       d="m 61.411787,92.02432 9.246385,-7.212596"
       style="fill:none;fill-rule:evenodd;stroke:#fdcc12;stroke-width:2.12193751;stroke-linecap:butt;stroke-linejoin:miter;stroke-miterlimit:4;stroke-dasharray:none;stroke-opacity:1;marker-end:url(#Arrow2Lend)" />
    <path
       id="path862-7"
       d="m 214.46252,255.53315 -8.90444,7.63074"
       style="fill:none;fill-opacity:1;fill-rule:evenodd;stroke:#fdcc12;stroke-width:2.12193751;stroke-linecap:butt;stroke-linejoin:miter;stroke-miterlimit:4;stroke-dasharray:none;stroke-opacity:1;marker-end:url(#Arrow2Lend-7)" />
    <path
       id="path862-7-5"
       d="m 194.54844,246.90433 -9.38146,7.03602"
       style="fill:none;fill-rule:evenodd;stroke:#fdcc12;stroke-width:2.12193751;stroke-linecap:butt;stroke-linejoin:miter;stroke-miterlimit:4;stroke-dasharray:none;stroke-opacity:1;marker-end:url(#Arrow2Lend-7-3)" />
    <path
       id="path862-9"
       d="m 41.470803,82.807855 8.792106,-7.759901"
       style="fill:none;fill-rule:evenodd;stroke:#fdcc12;stroke-width:2.12193751;stroke-linecap:butt;stroke-linejoin:miter;stroke-miterlimit:4;stroke-dasharray:none;stroke-opacity:1;marker-end:url(#Arrow2Lend-6)" />
  </g>
</svg>
